<?xml version="1.0" standalone="no"?><!DOCTYPE svg PUBLIC "-//W3C//DTD SVG 1.1//EN" "http://www.w3.org/Graphics/SVG/1.1/DTD/svg11.dtd"><svg t="1555035930993" class="icon" style="" viewBox="0 0 1024 1024" version="1.1" xmlns="http://www.w3.org/2000/svg" p-id="2314" xmlns:xlink="http://www.w3.org/1999/xlink" width="200" height="200"><defs><style type="text/css"></style></defs><path d="M191.825992 405.507341l640.348016 0 0 485.133225-640.348016 0 0-485.133225Z" fill="#FFCB57" p-id="2315"></path><path d="M804.33279 1024H219.66721a194.888526 194.888526 0 0 1-194.888526-194.888526v-361.935835a194.888526 194.888526 0 0 1 194.888526-194.888526h584.66558a194.888526 194.888526 0 0 1 194.888526 194.888526v361.935835a194.888526 194.888526 0 0 1-194.888526 194.888526z m-584.66558-696.030451a139.20609 139.20609 0 0 0-139.20609 139.20609v361.935835a139.20609 139.20609 0 0 0 139.20609 139.20609h584.66558a139.20609 139.20609 0 0 0 139.20609-139.20609v-361.935835a139.20609 139.20609 0 0 0-139.20609-139.20609z" fill="#472D22" p-id="2316"></path><path d="M866.001088 327.969549a27.841218 27.841218 0 0 1-26.866776-20.741708L773.289831 61.94671 195.166939 216.883089 215.491028 292.33279a27.841218 27.841218 0 1 1-53.733551 13.920609l-27.841218-102.873301a27.841218 27.841218 0 0 1 19.628059-34.105492L785.81838 0.974443a27.841218 27.841218 0 0 1 34.105492 19.628058L892.867863 292.33279a27.841218 27.841218 0 0 1-19.767265 34.105492 31.182164 31.182164 0 0 1-7.09951 1.531267zM964.419793 787.349647h-139.20609a132.245786 132.245786 0 0 1 0-264.491572h139.20609a27.841218 27.841218 0 0 1 0 55.682436h-139.20609a76.56335 76.56335 0 0 0 0 153.126699h139.20609a27.841218 27.841218 0 0 1 0 55.682437z" fill="#472D22" p-id="2317"></path></svg>