<?xml version="1.0" standalone="no"?><!DOCTYPE svg PUBLIC "-//W3C//DTD SVG 1.1//EN" "http://www.w3.org/Graphics/SVG/1.1/DTD/svg11.dtd"><svg class="icon" width="200px" height="200.00px" viewBox="0 0 1024 1024" version="1.1" xmlns="http://www.w3.org/2000/svg"><path fill="#515151" d="M271.36 974.01344c16.44544-17.72544 28.288-31.104 40.832-43.776 83.00544-83.38944 166.656-166.016 248.832-249.984 18.816-19.51744 38.84544-41.728 47.104-66.49344 6.144-18.11456 0.64-48.70656-12.032-62.336-12.47744-13.63456-41.66144-20.096-61.312-16.768-20.66944 3.51744-41.14944 19.77344-57.53344 34.944-42.30656 39.168-82.37056 80.64-123.264 121.27744-9.856 9.728-19.584 19.65056-29.568 28.99456-12.544 11.904-28.288 22.016-40.96 4.992-4.93056-6.656-0.256-29.37856 7.22944-34.62656 65.73056-46.848 72.38656-113.28 64.256-184.76544C351.04256 470.528 370.176 432.128 339.712 401.21344c-25.27744 21.95456-51.712 42.81856-75.52 66.37056-36.03456 35.64544-69.05856 74.368-105.53856 109.568-30.52544 29.24544-43.32544 62.848-42.81344 104.832 1.024 80.64-0.384 161.34144-1.792 242.11456-0.32256 19.38944 7.10144 50.10944-19.712 51.64544-35.13856 1.73056-24.576-32.256-24.77056-52.608-0.64-89.856 1.536-179.90656 0.896-269.76256-0.31744-39.61344 13.568-70.144 41.41056-98.304 68.02944-68.864 132.992-140.8 201.344-209.34144 31.744-31.872 46.848-66.688 43.264-111.36-2.11456-25.15456-1.536-50.75456 0.256-76.032C361.856 87.04 400 46.14144 470.016 44.8c124.47744-2.304 249.088-2.304 373.56544 0.06144 69.632 1.34656 110.40256 43.52 110.848 114.816 1.60256 214.46656 1.73056 428.99456 0.384 643.39456-0.384 71.22944-45.11744 119.48544-115.968 120.12544-133.504 1.28-267.19744-1.59744-400.70144-6.272-31.36-1.14688-52.736 7.87456-73.344 28.35456-22.656 22.58944-44.99456 48.18944-93.44 28.73344z m484.41344-486.272c0-106.112 0.256-212.096 0-318.14144-0.128-69.76-6.528-77.37856-73.14944-78.72-62.14144-1.408-124.47744-1.60256-186.752 0.18944-71.61344 2.048-89.984 21.248-90.624 91.84256-0.82944 92.288-1.664 184.50944-0.128 276.736 0.384 25.91744 8.89856 51.64544 13.63456 77.50144 21.18144-12.032 42.624-23.68 63.488-36.224 45.44-27.32544 107.008-25.40544 143.03744 5.05856 35.90656 30.336 48.64 84.096 27.008 132.736-9.984 22.528-26.112 43.392-43.264 61.50144-39.35744 42.112-81.664 81.34656-121.02144 123.52-9.66656 10.24-12.416 27.264-18.37056 41.15456 12.672 3.77344 25.41056 10.368 38.144 10.752 59.97056 1.152 120.00256 1.46944 179.84 0.384 58.368-1.152 67.13344-9.728 67.90144-70.144 1.09056-105.984 0.256-212.16256 0.256-318.14656z m48.83456-4.48h0.256c0 27.58656-0.128 55.10656 0 82.688 0 85.05856-0.256 170.05056 0.384 255.17056 0.256 23.74656 4.224 47.744 33.85344 51.90656 29.50656 4.21888 49.47456-13.50656 59.136-37.888 7.36256-18.37056 7.61856-40.38656 7.74656-60.61056 0.512-195.39456 0.512-390.85056 0.128-586.17856-0.128-18.176-0.384-37.248-5.504-54.4-8.51456-27.52-30.65344-39.86944-58.752-37.632-29.63456 2.304-36.096 24.00256-36.608 49.09056-0.256 11.52-0.512 22.97344-0.512 34.49344-0.128 101.05856-0.128 202.17856-0.128 303.36z"  /></svg>