<?xml version="1.0" encoding="iso-8859-1"?>
<!-- Generator: Adobe Illustrator 19.0.0, SVG Export Plug-In . SVG Version: 6.00 Build 0)  -->
<svg version="1.1" id="&#x56FE;&#x5C42;_1" xmlns="http://www.w3.org/2000/svg" xmlns:xlink="http://www.w3.org/1999/xlink" x="0px"
	 y="0px" viewBox="0 0 1536 2048" style="enable-background:new 0 0 1536 2048;" xml:space="preserve">
<path style="fill:#FFCB57;" d="M0,814.044c0,279.008,226.178,505.194,505.186,505.194s505.193-226.185,505.193-505.194
	S784.194,308.858,505.186,308.858S0,535.036,0,814.044L0,814.044z M0,814.044"/>
<path style="fill:#472D22;" d="M889.571,1846.388c-17.573,0-32.949-6.592-46.122-19.765c0,0-500.796-263.576-507.386-263.576
	H140.574c-72.487,0-131.79-59.303-131.79-131.79V754.739c0-72.479,59.303-131.783,129.592-131.783h197.687l507.386-294.333
	c10.982-13.174,28.549-19.765,46.122-19.765c35.146,0,65.895,28.557,65.895,65.895v1405.741
	C955.466,1817.832,926.909,1846.388,889.571,1846.388L889.571,1846.388z M845.641,462.615L404.15,713.008
	c-19.765,13.181-41.73,21.965-63.695,21.965H142.774c-10.982,0-21.965,8.784-21.965,21.965v678.708
	c0,10.984,8.784,21.967,21.965,21.967h195.482c13.181,0,26.357,2.198,39.538,6.59c17.573,8.784,426.115,206.471,470.045,235.02
	L845.641,462.615z M845.641,462.615"/>
<path style="fill:#472D22;" d="M1357.424,1499.344c-10.981,10.983-24.165,17.573-39.538,17.573c-15.375,0-28.557-6.59-39.54-15.374
	c-21.965-21.965-21.965-54.913,0-76.878c193.29-193.288,199.881-502.994,8.791-698.476l-10.982-10.982
	c-21.967-21.965-21.967-54.913,0-76.878c21.965-21.965,57.104-21.965,79.069,0c237.22,230.628,241.611,612.813,10.984,850.038
	C1366.208,1492.76,1361.816,1494.952,1357.424,1499.344L1357.424,1499.344z M1148.756,1345.594
	c-10.984,10.983-24.157,15.373-39.533,15.373c-15.381,0-28.557-6.59-39.538-15.373c-21.965-19.765-21.965-52.714-2.2-74.679l2.2-2.2
	c105.427-98.836,112.017-263.576,13.174-369.002l-13.174-13.183c-21.965-19.765-21.965-52.714-2.2-74.679l2.2-2.2
	c21.965-21.965,57.104-21.965,79.071,0c147.165,138.384,155.947,369.011,17.573,518.369
	C1159.737,1332.413,1155.345,1339.003,1148.756,1345.594L1148.756,1345.594z M1148.756,1345.594"/>
<rect x="0" y="307.882" style="fill:none;" width="1536.932" height="1540.385"/>
</svg>
